<?xml version="1.0" encoding="utf-8"?>
<!-- Generator: Adobe Illustrator 16.0.0, SVG Export Plug-In . SVG Version: 6.00 Build 0)  -->
<!DOCTYPE svg PUBLIC "-//W3C//DTD SVG 1.1//EN" "http://www.w3.org/Graphics/SVG/1.1/DTD/svg11.dtd">
<svg version="1.1" id="Layer_1" xmlns="http://www.w3.org/2000/svg" xmlns:xlink="http://www.w3.org/1999/xlink" x="0px" y="0px"
	 width="864px" height="864px" viewBox="0 0 864 864" enable-background="new 0 0 864 864" xml:space="preserve">
<g>
	
		<line fill="none" stroke="#ED1C24" stroke-width="1.3419" stroke-miterlimit="10" x1="567.071" y1="536.559" x2="567.071" y2="826.028"/>
	
		<line fill="none" stroke="#ED1C24" stroke-width="1.3419" stroke-miterlimit="10" x1="783.885" y1="536.707" x2="783.885" y2="826.177"/>
	
		<line fill="none" stroke="#ED1C24" stroke-width="1.3419" stroke-miterlimit="10" x1="530.419" y1="573.574" x2="819.889" y2="573.574"/>
	
		<line fill="none" stroke="#ED1C24" stroke-width="1.3419" stroke-miterlimit="10" x1="530.5" y1="789.388" x2="819.97" y2="789.388"/>
	<line fill="none" stroke="#ED1C24" stroke-miterlimit="10" x1="473.248" y1="249.094" x2="257.247" y2="249.094"/>
	<line fill="none" stroke="#ED1C24" stroke-miterlimit="10" x1="257.247" y1="249.094" x2="257.247" y2="465.093"/>
	<line fill="none" stroke="#ED1C24" stroke-miterlimit="10" x1="257.247" y1="465.093" x2="474.469" y2="465.093"/>
	<line fill="none" stroke="#ED1C24" stroke-miterlimit="10" x1="473.249" y1="465.093" x2="473.249" y2="248.556"/>
</g>
<g>
	<polygon fill="none" stroke="#000000" stroke-miterlimit="10" points="473.248,249.094 473.248,33.436 257.247,33.436 
		257.247,249.094 41.436,249.094 41.436,465.093 257.248,465.093 257.248,465.094 257.248,680.486 473.249,680.486 473.249,465.093 
		688.486,465.093 688.486,249.094 	"/>
	<line fill="none" stroke="#000000" stroke-miterlimit="10" x1="567.004" y1="788.817" x2="530.5" y2="788.817"/>
	
		<rect x="530.432" y="536.533" fill="none" stroke="#000000" stroke-width="1.3419" stroke-miterlimit="10" width="289.855" height="289.855"/>
	<line fill="none" stroke="#000000" stroke-miterlimit="10" x1="567.071" y1="536.559" x2="567.004" y2="573.286"/>
	<line fill="none" stroke="#000000" stroke-miterlimit="10" x1="819.889" y1="573.574" x2="783.985" y2="573.286"/>
	<line fill="none" stroke="#000000" stroke-miterlimit="10" x1="783.502" y1="788.817" x2="783.885" y2="826.177"/>
</g>
</svg>
